<svg width="63" height="61" viewBox="0 0 63 61" fill="none" xmlns="http://www.w3.org/2000/svg">
<g clip-path="url(#clip0_167_66)">
<path d="M31.3782 0C14.0507 0 0 13.9826 0 31.2315C0 45.0307 8.99079 56.7375 21.4584 60.8673C23.0265 61.1563 23.6024 60.1898 23.6024 59.3648C23.6024 58.6202 23.5731 56.1597 23.5598 53.5501C14.8301 55.4393 12.9881 49.8652 12.9881 49.8652C11.5607 46.2552 9.50414 45.2955 9.50414 45.2955C6.65733 43.357 9.71873 43.3967 9.71873 43.3967C12.8697 43.6171 14.5289 46.6152 14.5289 46.6152C17.3275 51.3899 21.8694 50.0094 23.6599 49.2116C23.9415 47.1928 24.7548 45.8153 25.6521 45.0354C18.6827 44.2454 11.356 41.5674 11.356 29.6005C11.356 26.1909 12.5818 23.4046 14.5892 21.2175C14.2633 20.4308 13.1894 17.2543 14.8931 12.9524C14.8931 12.9524 17.528 12.113 23.5243 16.1538C26.0271 15.4616 28.7115 15.1147 31.3782 15.103C34.0449 15.1147 36.7312 15.4616 39.2389 16.1538C45.2281 12.113 47.8593 12.9524 47.8593 12.9524C49.5672 17.2543 48.4928 20.4308 48.1669 21.2175C50.1788 23.4046 51.3962 26.1906 51.3962 29.6005C51.3962 41.5959 44.0557 44.2373 37.0686 45.0104C38.194 45.9796 39.1968 47.8804 39.1968 50.794C39.1968 54.9727 39.1604 58.336 39.1604 59.3648C39.1604 60.1959 39.7252 61.1698 41.3159 60.8631C53.7766 56.7287 62.7561 45.026 62.7561 31.2315C62.7561 13.9826 48.7074 0 31.3782 0Z" fill="#FFAD9B"/>
<path d="M11.752 44.4901C11.6831 44.6452 11.4375 44.6917 11.2143 44.5854C10.9867 44.4835 10.8587 44.2719 10.9326 44.1161C11.0002 43.9564 11.2458 43.9118 11.473 44.0191C11.7011 44.1207 11.831 44.3343 11.752 44.4901ZM13.2955 45.8608C13.1459 45.999 12.8533 45.9348 12.6547 45.7165C12.4495 45.4988 12.4111 45.2078 12.5629 45.0674C12.7172 44.9295 13.001 44.994 13.2067 45.212C13.4119 45.4322 13.4518 45.7214 13.2953 45.8611M14.3545 47.6146C14.162 47.7476 13.8475 47.6229 13.6534 47.3452C13.4612 47.0677 13.4612 46.7345 13.6575 46.601C13.8525 46.4675 14.162 46.5876 14.3589 46.8631C14.5509 47.1456 14.5509 47.4787 14.3542 47.6149M16.1451 49.6459C15.973 49.8345 15.6069 49.7841 15.3386 49.5264C15.0645 49.2746 14.9879 48.9172 15.1604 48.7284C15.3344 48.5393 15.7028 48.5924 15.973 48.8479C16.2455 49.0992 16.3284 49.4593 16.1451 49.6459ZM18.4593 50.3318C18.3838 50.5762 18.0309 50.6874 17.6755 50.5836C17.3207 50.4765 17.0883 50.19 17.16 49.9428C17.2338 49.6966 17.5882 49.5808 17.9462 49.692C18.3006 49.7985 18.5332 50.0829 18.4593 50.3318ZM21.0935 50.6225C21.1024 50.8802 20.8009 51.0938 20.4278 51.0985C20.0525 51.1065 19.7491 50.8981 19.7452 50.6448C19.7452 50.3847 20.0397 50.1731 20.4148 50.1669C20.7879 50.1596 21.0935 50.3666 21.0935 50.6225ZM23.6809 50.5238C23.7257 50.7751 23.4664 51.0333 23.096 51.1019C22.7318 51.168 22.3946 51.013 22.3481 50.7639C22.3028 50.5062 22.5671 50.2483 22.9306 50.1814C23.3017 50.1172 23.6337 50.2683 23.6809 50.5238Z" fill="#FFAD9B"/>
</g>
<defs>
<clipPath id="clip0_167_66">
<rect width="63" height="61" fill="white"/>
</clipPath>
</defs>
</svg>
