<svg width="41" height="40" viewBox="0 0 41 40" fill="none" xmlns="http://www.w3.org/2000/svg">
<g clip-path="url(#clip0_210_202)">
<path d="M20.4207 0C9.14412 0 0 9.16893 0 20.4797C0 29.5283 5.85115 37.2049 13.965 39.913C14.9855 40.1025 15.3603 39.4687 15.3603 38.9277C15.3603 38.4395 15.3412 36.826 15.3326 35.1148C9.65133 36.3537 8.45257 32.6985 8.45257 32.6985C7.52366 30.3313 6.18523 29.702 6.18523 29.702C4.33255 28.4308 6.32489 28.4568 6.32489 28.4568C8.37553 28.6014 9.4553 30.5674 9.4553 30.5674C11.2766 33.6983 14.2324 32.7931 15.3977 32.2699C15.581 30.9461 16.1103 30.0428 16.6942 29.5314C12.1586 29.0134 7.39041 27.2573 7.39041 19.4101C7.39041 17.1743 8.18815 15.3473 9.49454 13.9131C9.2825 13.3972 8.58357 11.3143 9.69234 8.49336C9.69234 8.49336 11.4071 7.94292 15.3095 10.5927C16.9383 10.1387 18.6853 9.91131 20.4207 9.9036C22.1562 9.91131 23.9044 10.1387 25.5364 10.5927C29.4342 7.94292 31.1465 8.49336 31.1465 8.49336C32.258 11.3143 31.5588 13.3972 31.3467 13.9131C32.656 15.3473 33.4483 17.1742 33.4483 19.4101C33.4483 27.276 28.6712 29.0081 24.124 29.515C24.8564 30.1506 25.509 31.397 25.509 33.3075C25.509 36.0477 25.4853 38.2531 25.4853 38.9277C25.4853 39.4727 25.8529 40.1113 26.8881 39.9102C34.9975 37.1992 40.8413 29.5253 40.8413 20.4797C40.8413 9.16893 31.6984 0 20.4207 0Z" fill="white"/>
<path d="M7.64826 29.1739C7.60342 29.2756 7.44358 29.3061 7.29832 29.2364C7.15017 29.1696 7.06689 29.0308 7.11494 28.9287C7.15898 28.824 7.31882 28.7947 7.46664 28.8651C7.61511 28.9317 7.69967 29.0718 7.64826 29.1739ZM8.65276 30.0728C8.55539 30.1634 8.36496 30.1213 8.23571 29.9782C8.10214 29.8354 8.07716 29.6446 8.17598 29.5525C8.27639 29.4621 8.46105 29.5043 8.59494 29.6473C8.72851 29.7917 8.75446 29.9814 8.6526 30.0729M9.34191 31.2228C9.21667 31.31 9.01199 31.2283 8.88563 31.0461C8.76055 30.8641 8.76055 30.6457 8.88835 30.5582C9.01519 30.4706 9.21667 30.5493 9.3448 30.73C9.46972 30.9152 9.46972 31.1337 9.34175 31.223M10.5072 32.5548C10.3953 32.6785 10.1569 32.6454 9.98238 32.4764C9.80396 32.3113 9.75416 32.077 9.86642 31.9531C9.97966 31.8291 10.2194 31.864 10.3953 32.0315C10.5726 32.1963 10.6265 32.4324 10.5072 32.5548ZM12.0133 33.0045C11.9642 33.1648 11.7345 33.2378 11.5032 33.1697C11.2723 33.0995 11.1211 32.9115 11.1677 32.7495C11.2157 32.5881 11.4464 32.5121 11.6794 32.585C11.91 32.6549 12.0614 32.8414 12.0133 33.0045ZM13.7276 33.1952C13.7334 33.3642 13.5372 33.5042 13.2944 33.5073C13.0502 33.5126 12.8527 33.3759 12.8501 33.2098C12.8501 33.0392 13.0418 32.9005 13.2859 32.8964C13.5287 32.8916 13.7276 33.0273 13.7276 33.1952ZM15.4115 33.1305C15.4407 33.2953 15.2719 33.4646 15.0308 33.5095C14.7938 33.5529 14.5744 33.4512 14.5441 33.2879C14.5146 33.1189 14.6866 32.9498 14.9232 32.9059C15.1647 32.8638 15.3808 32.9629 15.4115 33.1305Z" fill="white"/>
</g>
<defs>
<clipPath id="clip0_210_202">
<rect width="41" height="40" fill="white"/>
</clipPath>
</defs>
</svg>
