<svg width="1440" height="4140" viewBox="0 0 1440 4140" fill="none" xmlns="http://www.w3.org/2000/svg">
<rect x="-23" y="4" width="464" height="188" fill="white"/>
<rect x="-26" y="11" width="470" height="2" fill="#FEFCC2"/>
<rect x="-26" y="21" width="470" height="1" fill="#FEFCC2"/>
<rect x="-26" y="29" width="470" height="3" fill="#FEFCC2"/>
<rect x="-26" y="40" width="470" height="2" fill="#FEFCC2"/>
<rect x="-26" y="49" width="470" height="2" fill="#FEFCC2"/>
<rect x="-26" y="58" width="470" height="2" fill="#FEFCC2"/>
<rect x="-23" y="78" width="470" height="1" fill="#FEFCC2"/>
<rect x="-23" y="78" width="470" height="1" fill="#FEFCC2"/>
<rect x="-23" y="68" width="470" height="2" fill="#FEFCC2"/>
<rect x="-23" y="68" width="470" height="2" fill="#FEFCC2"/>
<rect x="-26" y="96" width="470" height="1" fill="#FEFCC2"/>
<rect x="-26" y="96" width="470" height="1" fill="#FEFCC2"/>
<rect x="-26" y="96" width="470" height="1" fill="#FEFCC2"/>
<rect x="-26" y="96" width="470" height="1" fill="#FEFCC2"/>
<rect x="-26" y="86" width="470" height="2" fill="#FEFCC2"/>
<rect x="-26" y="86" width="470" height="2" fill="#FEFCC2"/>
<rect x="-26" y="86" width="470" height="2" fill="#FEFCC2"/>
<rect x="-26" y="86" width="470" height="2" fill="#FEFCC2"/>
<rect x="-26" y="105" width="470" height="2" fill="#FEFCC2"/>
<rect x="-26" y="105" width="470" height="2" fill="#FEFCC2"/>
<rect x="-26" y="105" width="470" height="2" fill="#FEFCC2"/>
<rect x="-26" y="105" width="470" height="2" fill="#FEFCC2"/>
<rect x="-26" y="115" width="470" height="1" fill="#FEFCC2"/>
<rect x="-26" y="115" width="470" height="1" fill="#FEFCC2"/>
<rect x="-26" y="115" width="470" height="1" fill="#FEFCC2"/>
<rect x="-26" y="115" width="470" height="1" fill="#FEFCC2"/>
<rect x="-27" y="125" width="470" height="1" fill="#FEFCC2"/>
<rect x="-27" y="125" width="470" height="1" fill="#FEFCC2"/>
<rect x="-27" y="125" width="470" height="1" fill="#FEFCC2"/>
<rect x="-27" y="125" width="470" height="1" fill="#FEFCC2"/>
<rect x="-26" y="134" width="470" height="2" fill="#FEFCC2"/>
<rect x="-26" y="134" width="470" height="2" fill="#FEFCC2"/>
<rect x="-26" y="134" width="470" height="2" fill="#FEFCC2"/>
<rect x="-26" y="134" width="470" height="2" fill="#FEFCC2"/>
<rect x="-26" y="144" width="470" height="2" fill="#FEFCC2"/>
<rect x="-26" y="144" width="470" height="2" fill="#FEFCC2"/>
<rect x="-26" y="144" width="470" height="2" fill="#FEFCC2"/>
<rect x="-26" y="144" width="470" height="2" fill="#FEFCC2"/>
<rect x="-27" y="153" width="470" height="2" fill="#FEFCC2"/>
<rect x="-27" y="153" width="470" height="2" fill="#FEFCC2"/>
<rect x="-27" y="153" width="470" height="2" fill="#FEFCC2"/>
<rect x="-27" y="153" width="470" height="2" fill="#FEFCC2"/>
<rect x="-27" y="163" width="470" height="2" fill="#FEFCC2"/>
<rect x="-27" y="163" width="470" height="2" fill="#FEFCC2"/>
<rect x="-27" y="163" width="470" height="2" fill="#FEFCC2"/>
<rect x="-27" y="163" width="470" height="2" fill="#FEFCC2"/>
<rect x="-26" y="173" width="470" height="2" fill="#FEFCC2"/>
<rect x="-26" y="173" width="470" height="2" fill="#FEFCC2"/>
<rect x="-26" y="173" width="470" height="2" fill="#FEFCC2"/>
<rect x="-26" y="173" width="470" height="2" fill="#FEFCC2"/>
<rect x="-27" y="182" width="470" height="3" fill="#FEFCC2"/>
<rect x="-27" y="182" width="470" height="3" fill="#FEFCC2"/>
<rect x="-27" y="182" width="470" height="3" fill="#FEFCC2"/>
<rect x="-27" y="182" width="470" height="3" fill="#FEFCC2"/>
<rect x="986" width="489" height="205" fill="white"/>
<rect x="986" y="8" width="493" height="3" fill="#FEFCC2"/>
<rect x="985" y="19" width="492" height="2" fill="#FEFCC2"/>
<rect x="985" y="29" width="492" height="2" fill="#FEFCC2"/>
<rect x="985" y="40" width="492" height="1" fill="#FEFCC2"/>
<rect x="985" y="51" width="492" height="1" fill="#FEFCC2"/>
<rect x="985" y="62" width="492" height="1" fill="#FEFCC2"/>
<rect x="985" y="112" width="492" height="2" fill="#FEFCC2"/>
<rect x="986" y="91" width="493" height="2" fill="#FEFCC2"/>
<rect x="986" y="80" width="493" height="3" fill="#FEFCC2"/>
<rect x="986" y="70" width="493" height="2" fill="#FEFCC2"/>
<rect x="986" y="194" width="493" height="1" fill="#FEFCC2"/>
<rect x="985" y="102" width="492" height="2" fill="#FEFCC2"/>
<rect x="983" y="125" width="493" height="1" fill="#FEFCC2"/>
<rect x="983" y="125" width="493" height="1" fill="#FEFCC2"/>
<rect x="983" y="125" width="493" height="1" fill="#FEFCC2"/>
<rect x="983" y="125" width="493" height="1" fill="#FEFCC2"/>
<rect x="985" y="134" width="492" height="1" fill="#FEFCC2"/>
<rect x="985" y="134" width="492" height="1" fill="#FEFCC2"/>
<rect x="985" y="134" width="492" height="1" fill="#FEFCC2"/>
<rect x="985" y="132" width="492" height="2" fill="#FEFCC2"/>
<rect x="985" y="144" width="492" height="1" fill="#FEFCC2"/>
<rect x="985" y="144" width="492" height="1" fill="#FEFCC2"/>
<rect x="985" y="144" width="492" height="1" fill="#FEFCC2"/>
<rect x="985" y="144" width="492" height="1" fill="#FEFCC2"/>
<rect x="983" y="153" width="493" height="2" fill="#FEFCC2"/>
<rect x="983" y="153" width="493" height="2" fill="#FEFCC2"/>
<rect x="983" y="153" width="493" height="2" fill="#FEFCC2"/>
<rect x="983" y="153" width="493" height="2" fill="#FEFCC2"/>
<rect x="983" y="163" width="493" height="1" fill="#FEFCC2"/>
<rect x="983" y="163" width="493" height="1" fill="#FEFCC2"/>
<rect x="983" y="163" width="493" height="1" fill="#FEFCC2"/>
<rect x="983" y="163" width="493" height="1" fill="#FEFCC2"/>
<rect x="985" y="174" width="492" height="3" fill="#FEFCC2"/>
<rect x="983" y="184" width="493" height="1" fill="#FEFCC2"/>
</svg>
