<svg width="63" height="63" viewBox="0 0 63 63" fill="none" xmlns="http://www.w3.org/2000/svg">
<path d="M31.4999 0C14.1029 0 0 14.1029 0 31.4999C0 48.897 14.1029 62.9999 31.4999 62.9999C48.897 62.9999 63 48.897 63 31.4999C62.9999 14.1029 48.8967 0 31.4999 0ZM23.0957 46.7287H16.1796V24.3847H23.0957V46.7287ZM19.6047 21.4585C17.3459 21.4585 15.5148 19.6125 15.5148 17.3357C15.5148 15.0586 17.3462 13.2127 19.6047 13.2127C21.8632 13.2127 23.6943 15.0586 23.6943 17.3357C23.6944 19.6126 21.8633 21.4585 19.6047 21.4585ZM49.0139 46.7287H42.1313V34.9999C42.1313 31.7831 40.9094 29.9874 38.3657 29.9874C35.5974 29.9874 34.1511 31.8576 34.1511 34.9999V46.7287H27.5178V24.3847H34.1511V27.394C34.1511 27.394 36.1465 23.7031 40.8843 23.7031C45.6223 23.7031 49.014 26.5961 49.014 32.5808L49.0139 46.7287Z" fill="#FFAD9B"/>
</svg>
