<svg width="27" height="31" viewBox="0 0 27 31" fill="none" xmlns="http://www.w3.org/2000/svg">
<path d="M11 2C11 1.44772 11.4477 1 12 1H15C15.5523 1 16 1.44772 16 2V29C16 29.5523 15.5523 30 15 30H12C11.4477 30 11 29.5523 11 29V2Z" stroke="black" stroke-width="0.5"/>
<path d="M21 1V1C23.7614 1 26 3.23858 26 6V13C26 15.7614 23.7614 18 21 18V18V1Z" stroke="black" stroke-width="0.5"/>
<rect x="6" y="13" width="5" height="5" stroke="black" stroke-width="0.5"/>
<rect x="16" y="13" width="5" height="5" stroke="black" stroke-width="0.5"/>
<rect x="16" y="1" width="5" height="5" stroke="black" stroke-width="0.5"/>
<path d="M1 2C1 1.44772 1.44772 1 2 1H5C5.55228 1 6 1.44772 6 2V29C6 29.5523 5.55228 30 5 30H2C1.44772 30 1 29.5523 1 29V2Z" stroke="black" stroke-width="0.5"/>
<path d="M14 1H17" stroke="black" stroke-width="0.5"/>
</svg>
