<svg width="110" height="108" viewBox="0 0 110 108" fill="none" xmlns="http://www.w3.org/2000/svg">
<rect x="0.5" y="0.5" width="99" height="99" stroke="black"/>
<rect x="12" y="8" width="96" height="98" fill="white"/>
<rect x="1" y="1" width="98" height="98" fill="white" stroke="black" stroke-width="2"/>
<path d="M39.53 53.18H65.03V55.07H39.53V53.18ZM43.19 70.61C43.19 70.97 43.3 71.26 43.52 71.48C43.76 71.7 44.1 71.86 44.54 71.96L46.76 72.32C47.34 72.48 47.63 72.78 47.63 73.22C47.63 73.46 47.54 73.65 47.36 73.79C47.2 73.93 46.94 74 46.58 74H33.05C32.69 74 32.42 73.93 32.24 73.79C32.08 73.65 32 73.46 32 73.22C32 72.78 32.29 72.48 32.87 72.32L35.12 71.96C35.56 71.86 35.89 71.7 36.11 71.48C36.33 71.26 36.44 70.97 36.44 70.61V35.39C36.44 35.03 36.33 34.74 36.11 34.52C35.89 34.3 35.56 34.14 35.12 34.04L32.87 33.68C32.29 33.52 32 33.22 32 32.78C32 32.54 32.08 32.35 32.24 32.21C32.42 32.07 32.69 32 33.05 32H46.58C46.94 32 47.2 32.07 47.36 32.21C47.54 32.35 47.63 32.54 47.63 32.78C47.63 33.22 47.34 33.52 46.76 33.68L44.54 34.04C44.1 34.14 43.76 34.3 43.52 34.52C43.3 34.74 43.19 35.03 43.19 35.39V70.61ZM69.32 70.61C69.32 70.97 69.43 71.26 69.65 71.48C69.89 71.7 70.23 71.86 70.67 71.96L72.92 72.32C73.48 72.48 73.76 72.78 73.76 73.22C73.76 73.46 73.68 73.65 73.52 73.79C73.36 73.93 73.09 74 72.71 74H59.21C58.85 74 58.58 73.93 58.4 73.79C58.22 73.65 58.13 73.46 58.13 73.22C58.13 72.78 58.42 72.48 59 72.32L61.25 71.96C61.69 71.86 62.02 71.7 62.24 71.48C62.48 71.26 62.6 70.97 62.6 70.61V35.39C62.6 35.03 62.48 34.74 62.24 34.52C62.02 34.3 61.69 34.14 61.25 34.04L59 33.68C58.42 33.52 58.13 33.22 58.13 32.78C58.13 32.54 58.22 32.35 58.4 32.21C58.58 32.07 58.85 32 59.21 32H72.71C73.09 32 73.36 32.07 73.52 32.21C73.68 32.35 73.76 32.54 73.76 32.78C73.76 33.22 73.48 33.52 72.92 33.68L70.67 34.04C70.23 34.14 69.89 34.3 69.65 34.52C69.43 34.74 69.32 35.03 69.32 35.39V70.61Z" fill="black"/>
<path d="M39.53 53.18H65.03V55.07H39.53V53.18ZM43.19 70.61C43.19 70.97 43.3 71.26 43.52 71.48C43.76 71.7 44.1 71.86 44.54 71.96L46.76 72.32C47.34 72.48 47.63 72.78 47.63 73.22C47.63 73.46 47.54 73.65 47.36 73.79C47.2 73.93 46.94 74 46.58 74H33.05C32.69 74 32.42 73.93 32.24 73.79C32.08 73.65 32 73.46 32 73.22C32 72.78 32.29 72.48 32.87 72.32L35.12 71.96C35.56 71.86 35.89 71.7 36.11 71.48C36.33 71.26 36.44 70.97 36.44 70.61V35.39C36.44 35.03 36.33 34.74 36.11 34.52C35.89 34.3 35.56 34.14 35.12 34.04L32.87 33.68C32.29 33.52 32 33.22 32 32.78C32 32.54 32.08 32.35 32.24 32.21C32.42 32.07 32.69 32 33.05 32H46.58C46.94 32 47.2 32.07 47.36 32.21C47.54 32.35 47.63 32.54 47.63 32.78C47.63 33.22 47.34 33.52 46.76 33.68L44.54 34.04C44.1 34.14 43.76 34.3 43.52 34.52C43.3 34.74 43.19 35.03 43.19 35.39V70.61ZM69.32 70.61C69.32 70.97 69.43 71.26 69.65 71.48C69.89 71.7 70.23 71.86 70.67 71.96L72.92 72.32C73.48 72.48 73.76 72.78 73.76 73.22C73.76 73.46 73.68 73.65 73.52 73.79C73.36 73.93 73.09 74 72.71 74H59.21C58.85 74 58.58 73.93 58.4 73.79C58.22 73.65 58.13 73.46 58.13 73.22C58.13 72.78 58.42 72.48 59 72.32L61.25 71.96C61.69 71.86 62.02 71.7 62.24 71.48C62.48 71.26 62.6 70.97 62.6 70.61V35.39C62.6 35.03 62.48 34.74 62.24 34.52C62.02 34.3 61.69 34.14 61.25 34.04L59 33.68C58.42 33.52 58.13 33.22 58.13 32.78C58.13 32.54 58.22 32.35 58.4 32.21C58.58 32.07 58.85 32 59.21 32H72.71C73.09 32 73.36 32.07 73.52 32.21C73.68 32.35 73.76 32.54 73.76 32.78C73.76 33.22 73.48 33.52 72.92 33.68L70.67 34.04C70.23 34.14 69.89 34.3 69.65 34.52C69.43 34.74 69.32 35.03 69.32 35.39V70.61Z" fill="black"/>
<rect x="11" y="9" width="98" height="98" stroke="black" stroke-width="2"/>
</svg>
